<svg xmlns="http://www.w3.org/2000/svg" viewBox="0 0 100 100"><defs><style>.cls-1{fill:#35c800;stroke:#000;}.cls-1,.cls-2{stroke-miterlimit:10;}.cls-2{fill:none;stroke:#e51a1a;}.cls-3{fill:#e51a1a;}</style></defs><g id="Layer_3" data-name="Layer 3"><path class="cls-1" d="M93.73,63.7l-8.41,5L78.49,55.1c-6.57,8.36-18.56,22.38-23.37,20.05A20.55,20.55,0,0,1,48,68.52l-4.63,2.42a4.19,4.19,0,1,1-6.27-3,4.16,4.16,0,0,1,5.2.77L46.38,66c-2.57-4.35-4.14-9.09-3.68-11.91.88-5.37,35-13.38,35-13.38a5.08,5.08,0,0,1,6.47,6.77Z"/></g><g id="Targt"><circle class="cls-2" cx="21" cy="84" r="8.5"/><circle class="cls-3" cx="21" cy="84" r="2.5"/><path class="cls-2" d="M12.17,84H8"/><path class="cls-2" d="M33,84H29.6"/><path class="cls-2" d="M20.5,75.18V72"/><path class="cls-2" d="M20.5,97V92.59"/></g></svg>