<svg xmlns="http://www.w3.org/2000/svg" viewBox="0 0 100 100"><defs><style>.cls-1,.cls-2,.cls-4,.cls-5{fill:none;}.cls-1,.cls-4{stroke:#d83535;}.cls-1,.cls-2,.cls-3,.cls-4,.cls-5{stroke-miterlimit:10;}.cls-1{stroke-width:2px;}.cls-2{stroke:#fff;stroke-width:0.25px;}.cls-3{fill:#35c800;stroke:#000;}.cls-5{stroke:#e51a1a;}.cls-6{fill:#e51a1a;}</style></defs><g id="Layer_3" data-name="Layer 3"><path class="cls-1" d="M14.5,90.5c-3-2-14,0-15,2s10-14,13-14-2-4-6-4,13,0,14,3,1-8-2-9,11,6,10,8,2-3,10-3,8,3,8,3-11,0-14,3,14,1,15,6-6-1-12,1-6,7-4,10-9-5-9-5-6,1-6,6S14.5,90.5,14.5,90.5Z"/><path class="cls-2" d="M14.5,90.5c-3-2-14,0-15,2s10-14,13-14-2-4-6-4,13,0,14,3,1-8-2-9,11,6,10,8,2-3,10-3,8,3,8,3-11,0-14,3,14,1,15,6-6-1-12,1-6,7-4,10-9-5-9-5-6,1-6,6S14.5,90.5,14.5,90.5Z"/><path class="cls-3" d="M90.34,76.31l-9.74-.7,2.08-15c-10.15,3.15-28,7.88-30.62,3.23A20.51,20.51,0,0,1,50,54.3l-5.19-.64a4.19,4.19,0,0,1-7.94-2.14,4.18,4.18,0,0,1,8.31-.29l4.9.09c.36-5,1.76-9.83,3.74-11.89,3.77-3.92,36.4,8.87,36.4,8.87a5.09,5.09,0,0,1,3,7.82,5,5,0,0,1-1.5,1.42Z"/><path class="cls-4" d="M27.91,82.67c.71,1.23,4.95,2.43,5.65,1.9s-6,3.21-7,2.69,0,1.76,1.43,2.46-4.6-2.26-4.43-3.49-1.74,2.65-.85,3.53-2.85-4-2.15-4.57-1.23.72-4.06-.67-2.31-2.45-2.31-2.45,3.89,1.91,5.47,1.37-4.77-2.79-4.26-4.73,2,1.4,4.42,1.73S23.13,79,22.94,77.6s2.31,3.33,2.31,3.33,2.3.69,3.17-1.08S27.91,82.67,27.91,82.67Z"/></g><g id="Targt"><circle class="cls-5" cx="21" cy="84" r="8.5"/><circle class="cls-6" cx="21" cy="84" r="2.5"/><path class="cls-5" d="M12.17,84H8"/><path class="cls-5" d="M33,84H29.6"/><path class="cls-5" d="M20.5,75.18V72"/><path class="cls-5" d="M20.5,97V92.59"/></g></svg>