<svg id="Layer_1" data-name="Layer 1" xmlns="http://www.w3.org/2000/svg" viewBox="0 0 100 100"><defs><style>.cls-1{fill:#966d48;}.cls-2{fill:#aaa49f;}.cls-3{fill:none;stroke:#e51a1a;stroke-miterlimit:10;}.cls-4{fill:#e51a1a;}</style></defs><rect class="cls-1" x="27.46" y="54.83" width="50.38" height="6"/><path d="M77.33,55.33v5H28v-5H77.33m1-1H27v7H78.33v-7Z"/><path class="cls-2" d="M18.89,89.83a2.42,2.42,0,0,1-2.43-2.42V80.26a2.43,2.43,0,0,1,2.43-2.43h.5l.07-.5v-3.5h-4c.32-4.34,2.9-34,13.79-43.11l3.53-3,.53-.45a22.74,22.74,0,0,0-2.86,5.89c-1.89,6.6-3.74,36.34-4,40.63h-3v4H24a2.45,2.45,0,0,1,2.5,2.43v7.15A2.42,2.42,0,0,1,24,89.83Z"/><path d="M31.43,29.57A18.14,18.14,0,0,0,30,33.06c-1.85,6.45-3.64,34.63-4,40.27H23v5H24A1.94,1.94,0,0,1,26,80.26V87.4A1.93,1.93,0,0,1,24,89.33H18.89A1.92,1.92,0,0,1,17,87.4V80.26a1.93,1.93,0,0,1,1.93-1.93H20v-5H16c.47-5.78,3.21-33.59,13.57-42.23l1.83-1.53m4-4.53c-.21,0-1.88,1.49-6.44,5.29-12,10-14,44-14,44h4v3h-.07A2.93,2.93,0,0,0,16,80.26V87.4a2.93,2.93,0,0,0,2.93,2.93H24A2.93,2.93,0,0,0,27,87.4V80.26A2.93,2.93,0,0,0,24,77.33H24v-3h3s2-34,4-41C32.2,29,35.74,25,35.4,25Z"/><circle class="cls-3" cx="21" cy="84" r="8.5"/><circle class="cls-4" cx="21" cy="84" r="2.5"/><path class="cls-3" d="M12.17,84H8"/><path class="cls-3" d="M33,84H29.6"/><path class="cls-3" d="M20.5,75.18V72"/><path class="cls-3" d="M20.5,97V92.59"/></svg>