<svg id="Layer_1" data-name="Layer 1" xmlns="http://www.w3.org/2000/svg" viewBox="0 0 100 100"><defs><style>.cls-1{fill:#966d48;}.cls-2{fill:none;stroke:#e51a1a;stroke-miterlimit:10;}.cls-3{fill:#e51a1a;}.cls-4{fill:#aaa49f;}</style></defs><rect class="cls-1" x="62.5" y="22.5" width="6" height="50.38"/><path d="M68,23V72.38H63V23h5m1-1H62V73.38h7V22Z"/><circle class="cls-2" cx="21" cy="84" r="8.5"/><circle class="cls-3" cx="21" cy="84" r="2.5"/><path class="cls-2" d="M12.17,84H8"/><path class="cls-2" d="M33,84H29.6"/><path class="cls-2" d="M20.5,75.18V72"/><path class="cls-2" d="M20.5,97V92.59"/><path class="cls-4" d="M96,28.38a22.67,22.67,0,0,0-5.88-2.86c-6.61-1.89-36.35-3.73-40.64-4v-3h-4V19a2.45,2.45,0,0,1-2.43,2.5H35.93a2.43,2.43,0,0,1-2.43-2.43V13.93a2.43,2.43,0,0,1,2.43-2.43h7.14a2.43,2.43,0,0,1,2.43,2.43v.5l.5.07h3.5v-4c4.34.32,34,2.89,43.12,13.78,1.21,1.46,2.19,2.62,3,3.53Z"/><path d="M50,11.08c5.79.46,33.6,3.2,42.23,13.56l1.53,1.83A19.21,19.21,0,0,0,90.27,25c-6.45-1.84-34.62-3.64-40.27-4V18H45v1.07A1.94,1.94,0,0,1,43.07,21H35.93A1.94,1.94,0,0,1,34,19.07V13.93A1.94,1.94,0,0,1,35.93,12h7.14A1.94,1.94,0,0,1,45,13.93V15h5V11.08M49,10v4H46v-.07A2.93,2.93,0,0,0,43.07,11H35.93A2.93,2.93,0,0,0,33,13.93v5.14A2.93,2.93,0,0,0,35.93,22h7.14A2.93,2.93,0,0,0,46,19.07V19h3v3s34,2,41,4c4.14,1.18,7.93,4.47,8.27,4.47S97.08,28.9,93,24C83,12,49,10,49,10Z"/></svg>