<svg id="Layer_1" data-name="Layer 1" xmlns="http://www.w3.org/2000/svg" viewBox="0 0 100 100"><defs><style>.cls-1{fill:#aaffed;}</style></defs><path class="cls-1" d="M68.2,11.25c-1.94-1.42-4.48-.67-6.41.35A21.17,21.17,0,0,0,56.4,16c-1.5,1.6-3.15,3.39-3.61,5.6A5.39,5.39,0,0,0,55,27.38a12.32,12.32,0,0,0,6.87,1.55A15.09,15.09,0,0,0,68.8,27a14.49,14.49,0,0,0,7.3-10.3c.64-5.4-5.68-9.39-10.41-6.95-1.72.88-.2,3.47,1.51,2.59a4.3,4.3,0,0,1,4.19.51,3.57,3.57,0,0,1,1.72,3.65,11.42,11.42,0,0,1-5,7.44,12.06,12.06,0,0,1-9.85,1.51c-1.42-.4-2.7-1.1-2.57-2.77s1.23-2.81,2.21-3.91A23.66,23.66,0,0,1,62,14.94c1.22-.81,3.24-2.13,4.65-1.1a1.5,1.5,0,0,0,2-.54,1.54,1.54,0,0,0-.54-2.05Z"/><path class="cls-1" d="M53.28,22.86h-.13L54.6,24l-.05-.17-.38,1.46.1-.13-1.46.38.27.09-.9-.69c1.33,1.73,1.55,4.39,1.64,6.49a47.16,47.16,0,0,1-.33,7.32,141.65,141.65,0,0,1-2.9,14.57c-1,4.51-2.32,9.33-2.28,14a7.66,7.66,0,0,0,2.15,5.67A15.6,15.6,0,0,0,56,75.75c8.35,3,18.43,4.4,26-1.31a14.74,14.74,0,0,0,4-4.43A11.89,11.89,0,0,0,87.3,63.4a109.13,109.13,0,0,0-1.82-14.31A114.83,114.83,0,0,0,75,18.63c-.87-1.72-3.46-.21-2.59,1.51A112.13,112.13,0,0,1,81.7,45.67a109.52,109.52,0,0,1,2.22,13.22,38.24,38.24,0,0,1,.39,6.76A8.31,8.31,0,0,1,81.52,71c-6.39,6.2-16.2,4.83-23.84,2.21-1.79-.61-4.27-1.2-5.51-2.77s-.89-3.94-.67-5.78a128.92,128.92,0,0,1,2.65-13.48A96.39,96.39,0,0,0,56.74,36a35.12,35.12,0,0,0-.2-7.53c-.29-1.86-.88-5.17-2.93-5.82a1.46,1.46,0,0,0-1.46.39,1.78,1.78,0,0,0-.44,1.76,1.54,1.54,0,0,0,1.44,1.1h.13c1.93.11,1.92-2.89,0-3Z"/><path class="cls-1" d="M56.7,45.59c-2.59-6.73-9.39-9.84-16.23-10.33a33.75,33.75,0,0,0-20.75,5.51c-1.6,1.06-.1,3.66,1.52,2.6a31,31,0,0,1,17.91-5.18c5.76.16,12.4,2.34,14.65,8.2.69,1.78,3.59,1,2.9-.8Z"/><path class="cls-1" d="M21.25,53.23c3.22-4.43,8.83-6.21,14.08-6.46a61.69,61.69,0,0,1,18.56,2.46,1.5,1.5,0,0,0,.8-2.89c-11.44-3.06-27.95-5.73-36,5.37-1.14,1.57,1.46,3.07,2.59,1.52Z"/><path class="cls-1" d="M17.77,40.67a90.8,90.8,0,0,0-1.48,12.52,1.5,1.5,0,0,0,1.5,1.5,58.42,58.42,0,0,0,6.42-1.59,18.67,18.67,0,0,1,6.06-.22c2.16.19,4.32.53,6.49.52,1.67,0,4.53.05,5.41-1.69A3,3,0,0,0,41.94,49c-.46-1-.92-2-1.3-3.09a39.42,39.42,0,0,1-1.72-6.21C38.6,38,38.8,35.43,37,34.49s-3.56.59-4.59,2C31.26,38,33.86,39.52,35,38c.15-.21.52-.42.62-.65.25-.1.26-.15,0-.14s-.24,0-.1.26a7.8,7.8,0,0,0,.36,2.46A38.79,38.79,0,0,0,37,44.56,43.21,43.21,0,0,0,38.66,49a5.58,5.58,0,0,0,.51,1.14c.09.45.19.51.28.17s.11-.32-.29-.13c-.78,0-1.6.19-2.4.2-3.12,0-6.2-.68-9.33-.66a17.87,17.87,0,0,0-4.82.68,33.19,33.19,0,0,1-4.82,1.27l1.5,1.5a85.67,85.67,0,0,1,1.37-11.73c.36-1.88-2.53-2.69-2.89-.79Z"/></svg>