<svg id="Layer_1" data-name="Layer 1" xmlns="http://www.w3.org/2000/svg" viewBox="0 0 100 100"><defs><style>.cls-1{fill:#966d48;}.cls-2{fill:none;stroke:#e51a1a;stroke-miterlimit:10;}.cls-3{fill:#e51a1a;}</style></defs><rect class="cls-1" x="34.24" y="55.77" width="38.95" height="12.83"/><path d="M72.69,56.27V68.1H34.74V56.27H72.69m1-1H33.74V69.1H73.69V55.27Z"/><rect class="cls-1" x="5.81" y="31.19" width="28.96" height="62" rx="1.27"/><path d="M33.51,31.69a.76.76,0,0,1,.76.77V91.92a.77.77,0,0,1-.76.77H7.08a.78.78,0,0,1-.77-.77V32.46a.77.77,0,0,1,.77-.77H33.51m0-1H7.08a1.77,1.77,0,0,0-1.77,1.77V91.92a1.77,1.77,0,0,0,1.77,1.77H33.51a1.76,1.76,0,0,0,1.76-1.77V32.46a1.76,1.76,0,0,0-1.76-1.77Z"/><circle class="cls-2" cx="21" cy="84" r="8.5"/><circle class="cls-3" cx="21" cy="84" r="2.5"/><path class="cls-2" d="M12.17,84H8"/><path class="cls-2" d="M33,84H29.6"/><path class="cls-2" d="M20.5,75.18V72"/><path class="cls-2" d="M20.5,97V92.59"/></svg>