<svg id="Layer_1" data-name="Layer 1" xmlns="http://www.w3.org/2000/svg" viewBox="0 0 100 100"><defs><style>.cls-1{fill:#966d48;}.cls-2{fill:none;stroke:#e51a1a;stroke-miterlimit:10;}.cls-3{fill:#e51a1a;}</style></defs><rect class="cls-1" x="59.09" y="33.93" width="12.83" height="38.95"/><path d="M71.41,34.43V72.38H59.59V34.43H71.41m1-1H58.59V73.38H72.41V33.43Z"/><rect class="cls-1" x="34.5" y="5.5" width="62" height="28.96" rx="1.27"/><path d="M95.23,6a.76.76,0,0,1,.77.77V33.19a.76.76,0,0,1-.77.77H35.77a.76.76,0,0,1-.77-.77V6.77A.76.76,0,0,1,35.77,6H95.23m0-1H35.77A1.77,1.77,0,0,0,34,6.77V33.19A1.77,1.77,0,0,0,35.77,35H95.23A1.77,1.77,0,0,0,97,33.19V6.77A1.77,1.77,0,0,0,95.23,5Z"/><circle class="cls-2" cx="21" cy="84" r="8.5"/><circle class="cls-3" cx="21" cy="84" r="2.5"/><path class="cls-2" d="M12.17,84H8"/><path class="cls-2" d="M33,84H29.6"/><path class="cls-2" d="M20.5,75.18V72"/><path class="cls-2" d="M20.5,97V92.59"/></svg>